<?xml version="1.0" encoding="UTF-8"?>
<svg width="180px" height="39px" viewBox="0 0 180 39" version="1.1" xmlns="http://www.w3.org/2000/svg" xmlns:xlink="http://www.w3.org/1999/xlink">
    <title>DigiCert_logo</title>
    <g id="HOSTING" stroke="none" stroke-width="1" fill="none" fill-rule="evenodd">
        <g id="DigiCert_logo" fill="#1974BB" fill-rule="nonzero">
            <path d="M161.71101,21.8986591 L161.71101,12.0322303 L158.943597,12.0322303 L158.943597,8.78352809 L161.831332,8.78352809 L161.831332,2.64709066 L165.801968,2.64709066 L165.801968,8.78352809 L170.975827,8.78352809 L170.975827,12.0322303 L165.801968,12.0322303 L165.801968,21.4173699 C165.801968,22.259626 165.922291,22.9815598 166.162935,23.5831713 C166.40358,24.1847828 166.644224,24.666072 167.005191,25.0270389 C167.366158,25.3880058 167.727125,25.6286504 168.088092,25.869295 C168.569381,26.1099397 168.930348,26.230262 169.291315,26.230262 C169.652282,26.230262 170.013249,26.3505843 170.374216,26.3505843 L171.336794,26.230262 L171.336794,29.839931 C170.975827,29.839931 170.494538,29.9602533 169.892927,29.9602533 C169.170993,29.9602533 168.569381,29.9602533 167.96777,29.839931 C167.366158,29.7196087 166.644224,29.5992864 165.922291,29.2383195 C165.080034,28.8773526 164.478423,28.5163857 163.876811,27.9147742 C163.2752,27.3131627 162.793911,26.5912289 162.432944,25.6286504 C161.951655,24.4254274 161.71101,23.3425267 161.71101,21.8986591 L161.71101,21.8986591 Z M144.745565,29.7196087 L144.745565,8.42256118 L148.716201,8.42256118 L148.716201,12.1525526 L148.595879,13.7167425 L148.716201,13.7167425 C149.197491,12.1525526 150.039747,10.7086849 151.24297,9.74610651 C152.446193,8.66320578 153.769738,8.18191657 155.45425,8.18191657 L156.537151,8.30223888 L156.537151,12.2728749 C156.176184,12.1525526 155.815217,12.1525526 155.333928,12.1525526 C154.010383,12.1525526 152.80716,12.6338418 151.724259,13.4760979 C150.641358,14.318354 149.799102,15.6418993 149.317813,17.085767 C148.956846,18.1686677 148.836524,19.492213 148.836524,20.9360806 L148.836524,29.5992864 L144.745565,29.7196087 L144.745565,29.7196087 Z M122.00465,19.1312461 C122.00465,15.7622216 122.967229,13.115131 125.012708,11.0696518 C127.058187,9.02417269 129.584955,8.06159427 132.593013,8.06159427 C135.480748,8.06159427 137.766872,9.02417269 139.331062,10.8290072 C140.895252,12.7541641 141.737508,15.0402878 141.737508,17.9280231 L141.617185,19.7328576 L126.095608,19.7328576 C126.215931,22.0189814 126.937865,23.7034936 128.381732,24.9067166 C129.8256,26.1099397 131.510112,26.7115512 133.435269,26.7115512 C134.51817,26.7115512 135.60107,26.4709066 136.683971,26.1099397 C137.766872,25.7489727 138.488806,25.2676835 138.970095,24.9067166 L139.692029,24.3051051 L141.376541,27.3131627 C141.135896,27.5538073 140.774929,27.7944519 140.413962,28.1554188 C139.932673,28.5163857 138.970095,28.9976749 137.64655,29.4789641 C136.202682,30.0805756 134.758814,30.3212202 133.194624,30.3212202 C129.945922,30.3212202 127.178509,29.2383195 125.13303,27.1928404 C123.087551,24.9067166 122.00465,22.259626 122.00465,19.1312461 L122.00465,19.1312461 Z M126.336253,16.6044778 L137.64655,16.6044778 C137.64655,14.7996432 137.044938,13.4760979 136.08236,12.6338418 C135.119781,11.6712633 133.916558,11.1899741 132.47269,11.1899741 C130.908501,11.1899741 129.464633,11.6712633 128.381732,12.6338418 C127.298831,13.5964202 126.69722,14.9199655 126.336253,16.6044778 L126.336253,16.6044778 Z M101.670181,19.1312461 C101.670181,16.0028662 102.753082,13.3557756 104.918883,11.1899741 C107.084685,9.02417269 109.731775,7.94127197 113.1008,7.94127197 C114.66499,7.94127197 116.108857,8.18191657 117.432403,8.66320578 C118.755948,9.14449499 119.718526,9.74610651 120.320138,10.2273957 L121.162394,10.9493295 L119.237237,13.8370648 L118.515303,13.115131 C118.154336,12.8744864 117.552725,12.5135195 116.469824,12.0322303 C115.507246,11.550941 114.424345,11.3102964 113.341444,11.3102964 C111.175643,11.3102964 109.491131,12.0322303 108.047263,13.4760979 C106.603395,14.9199655 106.001784,16.7248001 106.001784,18.8906015 C106.001784,21.0564029 106.723718,22.8612375 108.167585,24.3051051 C109.611453,25.7489727 111.416288,26.4709066 113.582089,26.4709066 C114.785312,26.4709066 115.868213,26.230262 116.951113,25.7489727 C118.034014,25.2676835 118.87627,24.7863943 119.35756,24.3051051 L120.079493,23.5831713 L121.764006,26.5912289 L121.403039,26.9521958 C121.282716,27.0725181 120.921749,27.433485 120.320138,27.7944519 C119.838849,28.1554188 119.237237,28.5163857 118.635626,28.8773526 C118.034014,29.1179972 117.191758,29.4789641 116.22918,29.7196087 C115.266601,29.9602533 114.304023,30.0805756 113.221122,30.0805756 C109.852098,30.0805756 107.205007,28.9976749 105.039206,26.9521958 C102.753082,24.9067166 101.670181,22.259626 101.670181,19.1312461 Z M94.5711652,4.21128059 L94.5711652,6.21724894e-15 L98.6621235,6.21724894e-15 L98.6621235,4.21128059 L94.5711652,4.21128059 Z M94.6914875,29.7196087 L94.6914875,8.42256118 L98.7824458,8.42256118 L98.7824458,29.7196087 L94.6914875,29.7196087 Z M74.597663,33.5699224 C76.4024975,34.5325008 78.3276544,35.01379 80.3731335,35.01379 C82.4186126,35.01379 83.9828026,34.5325008 85.1860256,33.5699224 C86.3892486,32.607344 86.9908601,31.0431541 86.9908601,28.9976749 L86.9908601,27.433485 L86.9908601,26.1099397 L86.8705378,26.1099397 C85.5469925,28.2757411 83.5015134,29.4789641 80.6137781,29.4789641 C77.7260428,29.4789641 75.4399191,28.3960634 73.7554069,26.3505843 C72.0708946,24.3051051 71.2286385,21.6580145 71.2286385,18.5296346 C71.2286385,15.4012547 72.0708946,12.8744864 73.7554069,10.8290072 C75.4399191,8.90385039 77.7260428,7.82094966 80.6137781,7.82094966 C81.5763565,7.82094966 82.4186126,7.94127197 83.2608688,8.18191657 C84.1031249,8.42256118 84.7047364,8.66320578 85.1860256,9.02417269 C85.6673148,9.3851396 86.0282817,9.6257842 86.3892486,9.98675111 C86.7502155,10.347718 86.9908601,10.5883626 87.1111824,10.8290072 L87.351827,11.0696518 L87.4721493,11.0696518 L87.4721493,10.347718 L87.4721493,8.42256118 L91.322463,8.42256118 L91.322463,28.7570303 C91.322463,30.4415425 90.9614961,31.8854102 90.4802069,33.2089555 C89.8785954,34.5325008 89.0363393,35.4950792 88.0737609,36.2170131 C86.8705378,37.0592692 85.6673148,37.6608807 84.4640918,38.0218476 C83.2608688,38.3828145 81.9373234,38.6234591 80.4934558,38.6234591 C77.9666874,38.6234591 75.5602414,38.0218476 73.2741176,36.8186246 L74.597663,33.5699224 L74.597663,33.5699224 Z M81.5763565,25.869295 C83.2608688,25.869295 84.5844141,25.2676835 85.6673148,24.1847828 C86.7502155,22.9815598 87.2315047,21.1767252 87.2315047,18.6499569 C87.2315047,13.8370648 85.1860256,11.550941 81.2153896,11.550941 C79.4105551,11.550941 77.9666874,12.1525526 77.004109,13.4760979 C76.0415306,14.6793209 75.4399191,16.4841554 75.4399191,18.6499569 C75.4399191,20.9360806 76.0415306,22.7409152 77.1244313,24.0644605 C78.2073321,25.2676835 79.771522,25.869295 81.5763565,25.869295 L81.5763565,25.869295 Z M64.249945,4.21128059 L64.249945,0 L68.3409032,0 L68.3409032,4.21128059 L64.249945,4.21128059 Z M64.3702673,29.7196087 L64.3702673,8.42256118 L68.4612255,8.42256118 L68.4612255,29.7196087 L64.3702673,29.7196087 Z M40.6667737,19.1312461 C40.6667737,15.7622216 41.5090298,13.115131 43.3138643,11.0696518 C45.1186989,9.02417269 47.4048226,8.06159427 50.2925579,8.06159427 C51.2551363,8.06159427 52.0973924,8.18191657 52.8193262,8.42256118 C53.6615823,8.66320578 54.2631938,8.90385039 54.7444831,9.2648173 C55.2257723,9.6257842 55.5867392,9.98675111 55.9477061,10.2273957 C56.308673,10.5883626 56.5493176,10.8290072 56.6696399,11.0696518 L56.7899622,11.4306187 L56.9102845,11.4306187 C56.9102845,11.0696518 56.7899622,10.5883626 56.7899622,9.98675111 L56.7899622,0.120322303 L60.8809205,0.120322303 L60.8809205,29.7196087 L57.0306068,29.7196087 L57.0306068,27.6741296 L57.0306068,26.230262 L56.9102845,26.230262 C56.9102845,26.3505843 56.7899622,26.4709066 56.6696399,26.5912289 C56.5493176,26.7115512 56.308673,27.0725181 55.9477061,27.5538073 C55.5867392,28.0350965 55.10545,28.3960634 54.6241608,28.7570303 C54.1428715,29.1179972 53.4209377,29.4789641 52.5786816,29.7196087 C51.7364255,29.9602533 50.7738471,30.0805756 49.8112687,30.0805756 C46.9235334,30.0805756 44.6374096,29.1179972 42.9528974,27.0725181 C41.5090298,25.1473612 40.6667737,22.3799483 40.6667737,19.1312461 L40.6667737,19.1312461 Z M44.7577319,19.1312461 C44.7577319,21.4173699 45.3593435,23.2222044 46.4422442,24.666072 C47.5251449,26.1099397 48.9690125,26.7115512 50.7738471,26.7115512 C52.4583593,26.7115512 54.0225492,26.1099397 55.10545,24.7863943 C56.308673,23.462849 56.9102845,21.6580145 56.9102845,19.0109238 C56.9102845,16.9654447 56.4289953,15.1606101 55.3460946,13.7167425 C54.2631938,12.2728749 52.8193262,11.4306187 50.8941694,11.4306187 C49.2096571,11.4306187 47.6454672,12.1525526 46.5625665,13.4760979 C45.3593435,14.9199655 44.7577319,16.7248001 44.7577319,19.1312461 L44.7577319,19.1312461 Z" id="Shape"></path>
            <path d="M37.550426,22.1393037 C36.9488145,15.1606101 32.1359224,10.4680403 28.405931,5.41450361 C29.970121,3.12837987 33.4594677,3.85031368 35.9862361,4.33160289 C32.7375339,2.04547914 28.8872202,0.721933815 24.796262,0.360966908 C16.9753123,0.240644605 10.7185526,4.8128921 4.94308204,9.86642881 C1.45373527,8.78352809 3.86018132,5.05353671 3.86018132,2.40644605 C0.852123753,6.49740434 -0.110454668,11.0696518 0.00986763486,15.7622216 C0.130189937,19.9735022 1.93502448,24.0644605 4.34147053,27.7944519 L9.39500723,33.5699224 C7.710495,36.3373354 4.34147053,35.1341123 1.81470217,34.6528231 C5.90566046,37.6608807 10.477908,38.6234591 15.1704778,38.5031368 C19.3817583,38.3828145 23.4727166,36.57798 27.0823857,34.1715339 L32.8578562,29.1179972 C34.5423685,31.0431541 34.9033354,34.2918562 33.940757,36.6983023 C36.8284922,32.607344 37.9113929,27.5538073 37.550426,22.1393037 Z M32.0156001,22.3799483 C30.5717325,24.1847828 28.7668979,26.3505843 28.7668979,26.3505843 C26.9620634,28.3960634 25.3978735,29.3586418 24.6759397,29.9602533 C22.2694936,31.7650879 19.261436,32.8479886 16.2533785,32.9683109 L15.5314447,32.9683109 L12.0420979,29.4789641 C10.9591972,28.1554188 9.99661875,27.5538073 8.55275111,25.5083281 C6.74791658,22.9815598 5.66501585,20.0938245 5.54469355,17.085767 L5.54469355,16.1231885 L5.54469355,16.0028662 L8.91371802,12.9948087 C12.884354,9.5054619 17.2159569,6.37708203 22.6304605,6.37708203 L22.8711051,6.37708203 L25.5181958,9.86642881 C28.0449641,13.3557756 31.4139886,16.7248001 31.8952778,21.5376922 C31.8952778,21.5376922 32.0156001,22.259626 32.0156001,22.3799483 Z" id="Shape"></path>
            <path d="M174.344852,6.49740434 L174.344852,1.92515684 L175.788719,1.92515684 C176.149686,1.92515684 176.510653,1.92515684 176.630976,2.04547914 C176.87162,2.16580145 177.112265,2.28612375 177.232587,2.52676835 C177.352909,2.76741296 177.473232,3.00805756 177.473232,3.36902447 C177.473232,3.60966908 177.352909,3.97063598 177.232587,4.09095829 C177.112265,4.33160289 176.87162,4.45192519 176.630976,4.5722475 C176.630976,4.5722475 176.751298,4.6925698 176.751298,4.8128921 L177.713876,6.61772664 L176.991942,6.61772664 L176.029364,4.8128921 L175.066786,4.8128921 L175.066786,6.61772664 L174.344852,6.61772664 L174.344852,6.49740434 L174.344852,6.49740434 Z M175.066786,4.09095829 L176.029364,4.09095829 C176.270009,4.09095829 176.510653,3.97063598 176.630976,3.85031368 C176.751298,3.72999138 176.87162,3.48934677 176.87162,3.24870217 C176.87162,2.88773526 176.751298,2.64709066 176.510653,2.52676835 C176.390331,2.40644605 176.149686,2.40644605 175.909042,2.40644605 L175.187108,2.40644605 L175.066786,4.09095829 L175.066786,4.09095829 Z M175.788719,8.5494138e-15 C173.502596,8.5494138e-15 171.577439,1.80483454 171.577439,4.21128059 C171.577439,6.49740434 173.382273,8.42256118 175.788719,8.42256118 C178.074843,8.42256118 180,6.49740434 180,4.21128059 C180,1.92515684 178.074843,8.5494138e-15 175.788719,8.5494138e-15 M175.788719,7.58030506 C173.983885,7.58030506 172.419695,6.13643743 172.419695,4.21128059 C172.419695,2.40644605 173.863563,0.842256118 175.788719,0.842256118 C177.593554,0.842256118 179.157744,2.28612375 179.157744,4.21128059 C179.157744,6.01611513 177.713876,7.58030506 175.788719,7.58030506" id="Shape"></path>
        </g>
    </g>
</svg>