<?xml version="1.0" encoding="UTF-8"?>
<svg width="173px" height="44px" viewBox="0 0 173 44" version="1.1" xmlns="http://www.w3.org/2000/svg" xmlns:xlink="http://www.w3.org/1999/xlink">
    <title>GeoTrust_logo</title>
    <g id="SOLUTIONS-MAIL" stroke="none" stroke-width="1" fill="none" fill-rule="evenodd">
        <g id="GOOGLE-WORKSPACE-Copy" transform="translate(-1303.000000, -502.000000)">
            <g id="GeoTrust_logo" transform="translate(1303.000000, 502.000000)">
                <path d="M56.2,24.4 C53.6933333,24.4 51.5466667,23.9166667 49.76,22.95 C48.0327901,22.0444048 46.6284502,20.6260913 45.74,18.89 C44.848,17.1566667 44.402,15.1166667 44.402,12.77 C44.402,10.3833333 44.9066667,8.24333333 45.916,6.35 C46.887432,4.49683962 48.3646055,2.95725033 50.176,1.91 C52.016,0.843333333 54.1093333,0.31 56.456,0.31 C59.4826667,0.31 62.0426667,1.09 64.136,2.65 L62.904,4.77 C61.0506667,3.50733333 58.924,2.876 56.524,2.876 C54.8696576,2.84710282 53.2406824,3.28519315 51.824,4.14 C50.4676231,4.97770814 49.3783412,6.18493781 48.684,7.62 C47.9355206,9.17900241 47.5602824,10.8908552 47.588,12.62 C47.588,15.42 48.3346667,17.6466667 49.828,19.3 C51.3213333,20.9533333 53.488,21.78 56.328,21.78 C58.2613333,21.78 59.9613333,21.5026667 61.428,20.948 L61.428,14.348 L55.528,14.348 L55.528,11.748 L64.468,11.748 L64.468,22.668 C61.988,23.8013333 59.2346667,24.368 56.208,24.368 L56.2,24.4 Z" id="Path" fill="#011038" fill-rule="nonzero"></path>
                <path d="M75.8,24.4 C73.1866667,24.4 71.1066667,23.62 69.56,22.06 C68.0133333,20.5 67.2466667,18.44 67.26,15.88 C67.26,13.3466667 68,11.2666667 69.48,9.64 C70.96,8.01333333 72.92,7.19333333 75.36,7.18 C76.8933333,7.18 78.2066667,7.53733333 79.3,8.252 C80.3888916,8.95733706 81.2393598,9.97511042 81.74,11.172 C82.2960968,12.5290804 82.5683577,13.9856758 82.54,15.452 C82.54,15.652 82.524,15.916 82.492,16.236 L70.312,16.236 C70.344,18.076 70.8726667,19.496 71.898,20.496 C72.9233333,21.496 74.2766667,21.9946667 75.958,21.992 C77.8575897,22.0162444 79.7052665,21.3720353 81.178,20.172 L82.06,22.352 C80.3,23.712 78.2133333,24.392 75.8,24.392 L75.8,24.4 Z M70.38,14.24 L79.82,14.24 C79.712,12.7333333 79.274,11.5733333 78.506,10.76 C77.738,9.94666667 76.7113333,9.54066667 75.426,9.542 C74.1794003,9.50173603 72.966436,9.95031751 72.046,10.792 C71.1446667,11.624 70.5866667,12.7706667 70.372,14.232 L70.38,14.24 Z" id="Shape" fill="#011038" fill-rule="nonzero"></path>
                <path d="M92.8,24.4 C90.1333333,24.4 88.0533333,23.6133333 86.56,22.04 C85.0666667,20.4666667 84.32,18.4066667 84.32,15.86 C84.32,13.2733333 85.0733333,11.18 86.58,9.58 C88.0866667,7.98 90.1733333,7.18666667 92.84,7.19983471 C95.4933333,7.19983471 97.5533333,7.99333333 99.02,9.58 C100.486667,11.1666667 101.22,13.26 101.22,15.86 C101.22,18.4066667 100.473333,20.4666667 98.98,22.04 C97.4866667,23.6133333 95.4266667,24.4066667 92.8,24.42 L92.8,24.4 Z M92.8,22 C94.5333333,22 95.8533333,21.44 96.76,20.32 C97.6666667,19.2 98.1233333,17.7066667 98.13,15.84 C98.13,13.9466667 97.668,12.4333333 96.744,11.3 C95.82,10.1666667 94.5,9.598 92.784,9.594 C91.0506667,9.594 89.7173333,10.1626667 88.784,11.3 C87.8506667,12.4373333 87.384,13.9506667 87.384,15.84 C87.384,17.6933333 87.846,19.1866667 88.77,20.32 C89.694,21.4533333 91.034,22.012 92.79,21.996 L92.8,22 Z" id="Shape" fill="#011038" fill-rule="nonzero"></path>
                <polygon id="Path" fill="#011038" fill-rule="nonzero" points="106.6 24 106.6 3.2 99.16 3.2 99.16 0.62 117.16 0.62 117.16 3.2 109.66 3.2 109.66 24"></polygon>
                <path d="M117.2,24 L117.2,11.6 C117.2,11.238 117.18,10.72 117.144,10.046 C117.108,9.372 117.072,8.792 117.04,8.302 L116.99,7.564 L120.11,7.564 L120.142,10.124 C121.136667,8.164 122.603333,7.18392648 124.542,7.18392648 C125.102815,7.18138438 125.661777,7.24856724 126.206,7.384 L126.19,9.984 C125.603822,9.82010304 124.99863,9.73403129 124.39,9.728 C123.13,9.728 122.116667,10.1686667 121.35,11.05 C120.583333,11.9313333 120.198667,13.198 120.196,14.85 L120.196,24.01 L117.2,24 Z" id="Path" fill="#011038" fill-rule="nonzero"></path>
                <path d="M134.4,24.4 C132.293333,24.4 130.713333,23.8 129.66,22.6 C128.606667,21.4 128.078667,19.7866667 128.076,17.76 L128.076,7.6 L130.996,7.6 L130.996,17.76 C130.996,19.1733333 131.329333,20.2333333 131.996,20.94 C132.662667,21.6466667 133.629333,22.002 134.896,22.006 C136.336,22.006 137.462667,21.5946667 138.276,20.772 C139.089333,19.9493333 139.496,18.8893333 139.496,17.592 L139.496,7.612 L142.436,7.612 L142.436,19.972 C142.436,21.4386667 142.484,22.7986667 142.58,24.052 L139.58,24.052 L139.5,21.412 C139.02811,22.2705688 138.358242,23.0042011 137.546,23.552 C136.708667,24.136 135.655333,24.428 134.386,24.428 L134.4,24.4 Z" id="Path" fill="#011038" fill-rule="nonzero"></path>
                <path d="M151.4,24.4 C149.14742,24.4315437 146.944849,23.7349981 145.12,22.414 L145.936,20.214 C146.652552,20.7194987 147.432602,21.1283527 148.256,21.43 C149.180446,21.7902545 150.163839,21.9754038 151.156,21.976 C153.329333,21.976 154.416,21.176 154.416,19.576 C154.453598,18.9788207 154.172987,18.4061917 153.678,18.07 C153.188667,17.7406667 152.235333,17.3353333 150.818,16.854 L149.408,16.376 C148.864,16.184 148.402,16.002 148.022,15.83 C147.620647,15.6465707 147.236458,15.4277032 146.874,15.176 C146.521604,14.9436523 146.207797,14.6575143 145.944,14.328 C145.693962,13.9938081 145.501947,13.6199204 145.376,13.222 C145.225247,12.7482176 145.152301,12.2531286 145.16,11.756 C145.144221,11.0325619 145.312118,10.3169331 145.648,9.676 C145.958342,9.09001453 146.420457,8.59819702 146.986,8.252 C147.572684,7.90023361 148.209224,7.63927899 148.874,7.478 C149.593397,7.29828634 150.332509,7.20959292 151.074,7.21384351 C153.247333,7.21384351 155.074,7.68866667 156.554,8.638 L155.738,10.758 C154.41639,10.0200267 152.931566,9.62338629 151.418,9.604 C150.362,9.604 149.548667,9.786 148.978,10.15 C148.429968,10.4627076 148.09806,11.0512296 148.114,11.682 C148.114,12.282 148.286,12.72 148.634,13.004 C148.982,13.288 149.672,13.616 150.714,13.988 C151.648,14.298 152.198,14.484 152.364,14.55 C153.036,14.784 153.564,14.988 153.982,15.15 C154.432255,15.345429 154.868024,15.5726703 155.286,15.83 C155.69132,16.06442 156.054374,16.3652745 156.36,16.72 C156.631495,17.0697274 156.84242,17.4625075 156.984,17.882 C157.155875,18.3893618 157.23975,18.9223724 157.232,19.458 C157.250444,20.2530618 157.080479,21.0412035 156.736,21.758 C156.433673,22.382293 155.968707,22.9135843 155.39,23.296 C154.823114,23.665753 154.201485,23.9438326 153.548,24.12 C152.856912,24.3066722 152.143847,24.3995051 151.428,24.396 L151.4,24.4 Z" id="Path" fill="#011038" fill-rule="nonzero"></path>
                <path d="M168.4,24 L167.04,24 C164.706667,23.9773333 163.113333,23.5606667 162.26,22.75 C161.406667,21.9393333 160.977333,20.4593333 160.972,18.31 L160.972,9.53 L157.832,9.53 L157.832,7.568 L161.052,7.568 L161.052,3.348 L163.932,2.498 L163.932,7.578 L168.392,7.578 L168.392,9.54 L163.932,9.54 L163.932,18.48 C163.921882,18.9582263 163.962103,19.4361901 164.052,19.906 C164.117958,20.2337056 164.245552,20.5459036 164.428,20.826 C164.629939,21.0976904 164.918482,21.2924039 165.246,21.378 C165.657821,21.5033645 166.08134,21.5864599 166.51,21.626 C166.98,21.674 167.614,21.698 168.416,21.698 L168.4,24 Z" id="Path" fill="#011038" fill-rule="nonzero"></path>
                <path d="M14.9,7.8 C18.14,5.6 21.6,4.74 24.46,5.16 L24.46,0 L0.06,0 L0.06,24.6 L8.42,24.6 C8.31776023,24.4288573 8.22560331,24.2518893 8.144,24.07 C5.824,19.19 8.876,11.87 14.964,7.71 L14.9,7.8 Z" id="Path" fill="#0174C3"></path>
                <path d="M24.4,7.98 C20.9280029,7.98067834 17.636279,9.52597942 15.4177451,12.1967232 C13.1992113,14.8674669 12.2838635,18.3867765 12.92,21.8 C13.212,23.062 13.884,23.454 14.504,23.72 C14.7354141,23.818427 14.9788762,23.8856817 15.228,23.92 C16.5462972,24.0047016 17.8570467,23.6647479 18.968,22.95 C20.622,21.92 21.848,20.25 22.508,18.33 C20.468,18.572 18.468,18.878 16.568,19.244 L16.604,15.584 L29.724,14.708 L29.632,27.088 L25.672,27.356 L25.672,27.338 C25.692,27.208 25.712,27.076 25.732,26.95 C25.886,25.91 26.016,24.85 26.132,23.77 C26.192,23.148 26.248,22.528 26.292,21.9 C25.7811958,22.5688508 25.2094097,23.1888436 24.584,23.752 C23.9836338,24.2930018 23.3379295,24.781462 22.654,25.212 C22.2416852,25.47316 21.8157482,25.7121655 21.378,25.928 C20.5085305,26.3599614 19.5971092,26.7017444 18.658,26.948 C17.91,27.138 16.598,27.23 15.558,27.27 C19.078473,31.3596591 24.9422594,32.5052707 29.7431087,30.0413534 C34.543958,27.5774361 37.0319663,22.1454722 35.7618594,16.9008683 C34.4917525,11.6562643 29.7942034,7.9644559 24.398,7.96999376 L24.4,7.98 Z" id="Path" fill="#F26F28"></path>
                <path d="M171.2,21.7999982 C170.580338,21.7988964 170.077108,22.3003368 170.076002,22.9199988 C170.074899,23.5396609 170.576339,24.0428915 171.196001,24.0439983 C171.815663,24.0451013 172.318894,23.543662 172.320007,22.924 C172.321063,22.6274874 172.204292,22.3426972 171.995376,22.132281 C171.78646,21.9218647 171.502513,21.803059 171.206,21.802 M171.206,23.8220023 C170.707841,23.8231033 170.303109,23.4201605 170.302002,22.9220015 C170.3009,22.4238424 170.703842,22.0191094 171.202001,22.0180022 C171.700161,22.0168995 172.104894,22.419841 172.106002,22.918 C172.106533,23.1568577 172.011882,23.3860858 171.842984,23.5549841 C171.674086,23.7238824 171.444858,23.8185326 171.206,23.818" id="Shape" fill="#011038" fill-rule="nonzero"></path>
                <path d="M170.854,23.57 L170.854,22.332 L171.234,22.332 C171.3117,22.328225 171.389475,22.3376934 171.464,22.36 C171.528109,22.3823152 171.582521,22.4261275 171.618,22.484 C171.653951,22.5445731 171.673269,22.6135655 171.674,22.684 C171.675496,22.7590569 171.654608,22.8328593 171.614,22.896 C171.574572,22.9543528 171.516889,22.9979667 171.45,23.02 L171.45,23.02 C171.464466,23.0373801 171.477194,23.0561364 171.488,23.076 L171.75,23.556 L171.55,23.556 L171.29,23.064 L171.024,23.064 L171.024,23.556 L170.854,23.57 Z M171.028,22.926 L171.278,22.926 C171.337623,22.9309375 171.396325,22.9089241 171.438,22.866 C171.47751,22.8207127 171.498254,22.7620576 171.496,22.702 C171.506909,22.6216292 171.468199,22.542628 171.398,22.502 C171.344205,22.4798427 171.28606,22.4702659 171.228,22.474 L171.028,22.474 L171.028,22.926 Z" id="Shape" fill="#011038" fill-rule="nonzero"></path>
                <path d="M130.2,37.8 C130.2,36.7586667 130.478,35.9253333 131.034,35.3 C131.570626,34.682754 132.356521,34.3397512 133.174,34.366 C133.444194,34.3634852 133.71343,34.3984858 133.974,34.47 C134.180912,34.5224804 134.377153,34.6104508 134.554,34.73 C134.686229,34.8262149 134.812463,34.9304085 134.932,35.042 C135.01775,35.1190323 135.093657,35.2063599 135.158,35.302 L135.21,35.406 L135.236,35.406 C135.218323,35.2593352 135.20964,35.1117258 135.21,34.964 L135.21,31.904 L136.472,31.904 L136.472,41.084 L135.272,41.084 L135.272,40.46 L135.284,40.018 L135.258,40.018 C135.242,40.052 135.218,40.096 135.188,40.148 C135.12028,40.2499517 135.046129,40.3474828 134.966,40.44 C134.850353,40.5834894 134.715795,40.7106462 134.566,40.818 C134.375843,40.9458337 134.167502,41.044273 133.948,41.11 C133.675423,41.1981648 133.390473,41.2420552 133.104,41.24 C132.287286,41.2741999 131.502038,40.9223197 130.984,40.29 C130.454667,39.658 130.189333,38.8246667 130.188,37.79 L130.2,37.8 Z M131.488,37.8 C131.458829,38.4119968 131.640237,39.015512 132.002,39.51 C132.321378,39.9281616 132.822002,40.1676877 133.348,40.154 C133.865389,40.1617768 134.360215,39.9425037 134.702,39.554 C135.066,39.154 135.248,38.562 135.248,37.778 C135.261703,37.1917695 135.091011,36.616031 134.76,36.132 C134.453599,35.6785756 133.934856,35.4154233 133.388,35.436 C132.864015,35.4296744 132.365661,35.6622885 132.034,36.068 C131.67,36.494 131.488,37.07 131.488,37.8 L131.488,37.8 Z" id="Shape" fill="#0174C3" fill-rule="nonzero"></path>
                <path d="M137.6,33.2 L137.6,31.912 L138.874,31.912 L138.874,33.2 L137.6,33.2 Z M137.612,41.1 L137.612,34.52 L138.874,34.52 L138.874,41.1 L137.612,41.1 Z" id="Shape" fill="#0174C3" fill-rule="nonzero"></path>
                <path d="M140.8,42.2 C141.35341,42.4960289 141.972418,42.6480298 142.6,42.642 C143.139827,42.6677936 143.672358,42.5090922 144.11,42.192 C144.49,41.894 144.682,41.428 144.682,40.792 L144.682,40.31 L144.694,39.894 L144.668,39.894 C144.26,40.5806667 143.61,40.9233333 142.718,40.922 C141.894554,40.9548101 141.103022,40.60121 140.578,39.966 C140.028396,39.282109 139.7443,38.4227187 139.778,37.546 C139.778,36.574 140.033333,35.7806667 140.544,35.166 C141.070825,34.5500731 141.854747,34.2150575 142.664,34.26 C142.940395,34.2575557 143.215966,34.2904898 143.484,34.358 C143.696227,34.4062584 143.898979,34.4893866 144.084,34.604 C144.217633,34.691771 144.344035,34.7900842 144.462,34.898 C144.541324,34.968843 144.608839,35.0518864 144.662,35.144 L144.726,35.236 L144.752,35.236 C144.74402,35.1696319 144.740013,35.1028462 144.74,35.036 L144.74,34.424 L145.94,34.424 L145.94,40.744 C145.949991,41.2184121 145.854348,41.6891082 145.66,42.122 C145.492305,42.4969618 145.229649,42.8216627 144.898,43.064 C144.578471,43.2940554 144.22202,43.4678847 143.844,43.578 C143.446481,43.6982869 143.033319,43.7589469 142.618,43.7580109 C141.843734,43.7487886 141.082775,43.5554637 140.398,43.194 L140.8,42.2 Z M142.98,39.84 C143.456671,39.8545531 143.915754,39.6593698 144.236,39.306 C144.56,38.95 144.724,38.374 144.724,37.576 C144.724,36.096 144.104,35.356 142.864,35.356 C142.357241,35.3308216 141.868201,35.5457027 141.544,35.936 C141.226,36.322 141.068,36.852 141.068,37.536 C141.038178,38.1357204 141.220115,38.726841 141.582,39.206 C141.922892,39.6250005 142.442437,39.8573114 142.982,39.832 L142.98,39.84 Z" id="Shape" fill="#0174C3" fill-rule="nonzero"></path>
                <path d="M147,33.2 L147,31.912 L148.274,31.912 L148.274,33.2 L147,33.2 Z M147.022,41.1 L147.022,34.52 L148.284,34.52 L148.284,41.1 L147.022,41.1 Z" id="Shape" fill="#0174C3" fill-rule="nonzero"></path>
                <path d="M149.2,37.8 C149.176604,36.8765927 149.538965,35.9851833 150.2,35.34 C150.87136,34.6837984 151.78174,34.3304841 152.72,34.362 C153.179719,34.3572194 153.636264,34.4386241 154.066,34.602 C154.385871,34.7100036 154.683393,34.8753692 154.944,35.09 L155.192,35.324 L154.592,36.21 C154.520151,36.1387442 154.444009,36.0719527 154.364,36.01 C154.17203,35.8699683 153.962163,35.7562902 153.74,35.672 C153.43483,35.5351804 153.104433,35.4636512 152.77,35.462 C152.155187,35.444633 151.561177,35.6854283 151.132,36.126 C150.696436,36.5738449 150.461786,37.1796025 150.482,37.804 C150.464164,38.4332804 150.700635,39.0432041 151.138,39.496 C151.575996,39.9456526 152.182568,40.1908931 152.81,40.172 C153.172917,40.1717976 153.531834,40.0962003 153.864,39.95 C154.133876,39.8455505 154.384088,39.6960992 154.604,39.508 L154.838,39.288 L155.346,40.21 L155.236,40.322 C155.134783,40.4133142 155.027904,40.4981495 154.916,40.576 C154.74842,40.6975238 154.570388,40.803941 154.384,40.894 C154.146693,41.0003475 153.900387,41.0853499 153.648,41.148 C153.344294,41.2265804 153.031703,41.2655701 152.718,41.264 C151.773178,41.3015844 150.854544,40.9485975 150.178,40.288 C149.518379,39.6349542 149.162261,38.7355938 149.196,37.808 L149.2,37.8 Z" id="Path" fill="#0174C3" fill-rule="nonzero"></path>
                <path d="M155.4,37.8 C155.4,36.768 155.71,35.9346667 156.33,35.3 C156.950545,34.6703409 157.806478,34.3294184 158.69,34.36 C159.582,34.36 160.29,34.65 160.79,35.232 C161.307944,35.8528887 161.576671,36.6441009 161.544,37.452 L161.496,37.988 L156.696,37.988 C156.692683,38.5954767 156.945328,39.1762687 157.392,39.588 C157.823974,39.9673518 158.38331,40.1695131 158.958,40.154 C159.301062,40.1519531 159.64054,40.0840574 159.958,39.954 C160.213781,39.8601152 160.456435,39.7337468 160.68,39.578 L160.914,39.378 L161.434,40.302 C161.336034,40.395661 161.231792,40.4825293 161.122,40.562 C160.847642,40.7325428 160.55518,40.8720659 160.25,40.978 C159.815056,41.1497538 159.351628,41.2379612 158.884,41.238 C157.042855,41.3058307 155.490484,39.8783631 155.404,38.038 L155.404,37.802 L155.4,37.8 Z M156.74,37.032 L160.26,37.032 C160.27624,36.5691872 160.105385,36.1193399 159.786,35.784 C159.487978,35.4973722 159.087327,35.3424442 158.674,35.354 C158.211853,35.3435467 157.761508,35.5005282 157.406,35.796 C157.042409,36.1132832 156.80821,36.553208 156.748,37.032 L156.74,37.032 Z" id="Shape" fill="#0174C3" fill-rule="nonzero"></path>
                <path d="M162.6,41 L162.6,34.42 L163.822,34.42 L163.822,35.562 L163.796,36.056 L163.822,36.056 C163.963724,35.5783301 164.236758,35.1500677 164.61,34.82 C164.966332,34.5039174 165.427717,34.3320566 165.904,34.338 L166.23,34.364 L166.23,35.614 C166.110597,35.5867801 165.988464,35.5733589 165.866,35.574 C165.45492,35.5742051 165.05754,35.7218034 164.746,35.99 C164.39589,36.286304 164.142367,36.6805188 164.018,37.122 C163.907341,37.5066985 163.854761,37.9057676 163.862,38.306 L163.862,41.006 L162.6,41 Z" id="Path" fill="#0174C3" fill-rule="nonzero"></path>
                <path d="M167.8,38.6 L167.8,35.52 L166.94,35.52 L166.94,34.506 L167.838,34.506 L167.838,32.606 L169.06,32.606 L169.06,34.506 L170.648,34.506 L170.648,35.52 L169.06,35.52 L169.06,38.44 C169.055434,38.663761 169.090648,38.8865544 169.164,39.098 C169.217993,39.2591589 169.304438,39.4075442 169.418,39.534 C169.518168,39.6381711 169.637747,39.7217405 169.77,39.78 C169.885284,39.8359976 170.007788,39.8757104 170.134,39.898 C170.243773,39.9157001 170.35481,39.9243957 170.466,39.924 L170.764,39.898 L170.764,41.016 C170.617522,41.0356892 170.469776,41.0443802 170.322,41.042 C170.121387,41.0423839 169.920963,41.0296801 169.722,41.004 C169.497403,40.9665372 169.278808,40.8992772 169.072,40.804 C168.83869,40.7103486 168.624494,40.5747812 168.44,40.404 C168.238515,40.1987752 168.083661,39.9525099 167.986,39.682 C167.853648,39.3314532 167.790483,38.9585793 167.8,38.584 L167.8,38.6 Z" id="Path" fill="#0174C3" fill-rule="nonzero"></path>
                <path d="M171.4,31.8 C170.874697,31.8033143 170.450916,32.2306752 170.452019,32.7559874 C170.453126,33.2812995 170.878701,33.7068741 171.404013,33.7079811 C171.929325,33.7090837 172.356686,33.2853028 172.360002,32.76 C172.360531,32.5075137 172.26074,32.2651578 172.08258,32.0862479 C171.904421,31.9073381 171.662486,31.8065299 171.41,31.806 M171.41,33.5260106 C170.985854,33.5282033 170.640228,33.1861531 170.63801,32.7620068 C170.635814,32.3378606 170.977861,31.9922318 171.402007,31.9900101 C171.826153,31.9878098 172.171785,32.3298538 172.174,32.754 C172.174,33.1762703 171.832269,33.5188975 171.41,33.52" id="Shape" fill="#0174C3" fill-rule="nonzero"></path>
                <path d="M171.11,33.312 L171.11,32.258 L171.432,32.258 C171.499536,32.2548613 171.567124,32.2629719 171.632,32.282 C171.685779,32.3021323 171.731454,32.3393751 171.762,32.388 C171.794151,32.4423997 171.810109,32.504845 171.808,32.568 C171.809452,32.6309912 171.79204,32.6929784 171.758,32.746 C171.726045,32.7965983 171.677127,32.8341733 171.62,32.852 L171.62,32.852 C171.631817,32.8660686 171.64189,32.8815139 171.65,32.898 L171.874,33.298 L171.708,33.298 L171.486,32.878 L171.258,32.878 L171.258,33.312 L171.11,33.312 Z M171.258,32.764 L171.47,32.764 C171.520594,32.7663453 171.569877,32.7475018 171.606,32.712 C171.639554,32.6739992 171.657425,32.6246744 171.656,32.574 C171.662113,32.5076809 171.62939,32.4437934 171.572,32.41 C171.52647,32.391081 171.477204,32.38287 171.428,32.386 L171.258,32.386 L171.258,32.764 Z" id="Shape" fill="#0174C3" fill-rule="nonzero"></path>
                <g id="Group" transform="translate(64.600000, 31.800000)" fill="#707E86" fill-rule="nonzero">
                    <path d="M5.60000585,6.2 C5.60000585,7.188 5.37466667,7.98133333 4.924,8.58 C4.50069846,9.16847429 3.81256909,9.5080414 3.088,9.486 C2.3,9.486 1.68066667,9.236 1.23,8.736 L1.23,11.876 L0.12,11.876 L0.12,2.876 L1.134,2.876 L1.188,3.594 C1.64617487,3.03101415 2.3450386,2.71983041 3.07,2.756 C3.79324006,2.73025801 4.48363123,3.0586603 4.92,3.636 C5.37466667,4.224 5.60133333,5.044 5.60000585,6.096 L5.60000585,6.2 Z M4.492,6.074 C4.492,5.342 4.336,4.764 4.024,4.34 C3.7304873,3.925213 3.24781764,3.68613363 2.74,3.704 C2.10526144,3.68151116 1.51553049,4.03066312 1.23,4.598 L1.23,7.698 C1.51983292,8.26634964 2.11460243,8.61336365 2.752,8.586 C3.25387365,8.60115169 3.72996124,8.36385882 4.02,7.954 C4.33466667,7.53266667 4.492,6.906 4.492,6.074 L4.492,6.074 Z" id="Shape"></path>
                    <path d="M6.6,6 C6.59105356,5.40663064 6.71975437,4.81926201 6.976,4.284 C7.20334462,3.80069503 7.56510124,3.39311127 8.018,3.11 C8.47722084,2.8303281 9.006399,2.68676338 9.544,2.696 C10.3560982,2.66505868 11.1400293,2.99621463 11.684,3.6 C12.2306667,4.212 12.504,5.02533333 12.504,6.04 L12.504,6.118 C12.5135181,6.70497356 12.3890275,7.28638563 12.14,7.818 C11.9162008,8.3033446 11.5562994,8.71327084 11.104,8.998 C10.6370283,9.28249594 10.0987147,9.42817357 9.552,9.418 C8.73765493,9.44541208 7.95335522,9.10896949 7.412,8.5 C6.868,7.888 6.59533333,7.08133333 6.594,6.08 L6.6,6 Z M7.716,6.132 C7.6841078,6.74902381 7.86017053,7.35890508 8.216,7.864 C8.53771115,8.27736673 9.03219649,8.51911746 9.556,8.51911746 C10.0798035,8.51911746 10.5742888,8.27736673 10.896,7.864 C11.228,7.42266667 11.394,6.804 11.394,6.008 C11.4236953,5.39095598 11.2455226,4.78178836 10.888,4.278 C10.5792752,3.84412765 10.0764144,3.59045231 9.544,3.6 C9.02244012,3.58912191 8.52832592,3.83319343 8.22,4.254 C7.88133333,4.69 7.712,5.314 7.712,6.126 L7.716,6.132 Z" id="Shape"></path>
                    <polygon id="Path" points="19.6 7.8 20.848 2.84 21.956 2.84 20.068 9.32 19.168 9.32 17.592 4.4 16.056 9.32 15.156 9.32 13.274 2.84 14.376 2.84 15.654 7.7 17.166 2.84 18.058 2.84"></polygon>
                    <path d="M25.8,9.4 C24.9962257,9.42736047 24.2185378,9.11265124 23.66,8.534 C23.108,7.95666667 22.832,7.18333333 22.832,6.214 L22.832,6.014 C22.8221043,5.41862271 22.9486721,4.82888498 23.202,4.29 C23.4284968,3.80612974 23.7851219,3.39479896 24.232,3.102 C24.6582933,2.82150391 25.1577037,2.67265457 25.668,2.67399096 C26.512,2.67399096 27.168,2.95133333 27.636,3.506 C28.104,4.06066667 28.3366667,4.854 28.3340227,5.886 L28.3340227,6.348 L23.934,6.348 C23.9227951,6.91610264 24.1222787,7.46824491 24.494,7.898 C24.8400498,8.2864819 25.3399409,8.50239384 25.86,8.488 C26.2089046,8.49991487 26.5545077,8.41697012 26.86,8.248 C27.1367032,8.08391296 27.3791366,7.86796381 27.574,7.612 L28.252,8.14 C27.7093333,8.976 26.896,9.394 25.812,9.394 L25.8,9.4 Z M25.662,3.58 C25.2334182,3.5725672 24.8226652,3.75131406 24.536,4.07 C24.2070304,4.45503065 24.0094542,4.93495861 23.972,5.44 L27.212,5.44 L27.212,5.356 C27.2111953,4.88055432 27.0505947,4.41917986 26.756,4.046 C26.4764345,3.73306395 26.0712409,3.56203113 25.652,3.58 L25.662,3.58 Z" id="Shape"></path>
                    <path d="M32.6,3.8 C32.4194671,3.7709884 32.236846,3.75694063 32.054,3.758 C31.326,3.758 30.832,4.068 30.572,4.688 L30.572,9.288 L29.464,9.288 L29.464,2.808 L30.544,2.808 L30.562,3.556 C30.8779923,3.00386673 31.4720837,2.67031478 32.108,2.688 C32.2762032,2.6791131 32.4442737,2.70780807 32.6,2.772 L32.6,3.8 Z" id="Path"></path>
                    <path d="M36.2,9.4 C35.3957749,9.42991807 34.617083,9.11480255 34.06,8.534 C33.508,7.95666667 33.232,7.18333333 33.232,6.214 L33.232,6.014 C33.2214792,5.41877856 33.3473613,4.82904818 33.6,4.29 C33.8270435,3.80587456 34.1843842,3.3945172 34.632,3.102 C35.0582933,2.82150391 35.5577037,2.67265457 36.068,2.67399096 C36.912,2.67399096 37.568,2.95133333 38.036,3.506 C38.504,4.06066667 38.738,4.854 38.738,5.886 L38.738,6.348 L34.338,6.348 C34.3267951,6.91610264 34.5262787,7.46824491 34.898,7.898 C35.2432655,8.28639485 35.7425264,8.50235081 36.262,8.488 C36.6108844,8.49971451 36.9564349,8.41678238 37.262,8.248 C37.5387032,8.08391296 37.7811366,7.86796381 37.976,7.612 L38.654,8.14 C38.11,8.97333333 37.2966667,9.39 36.214,9.39 L36.2,9.4 Z M36.062,3.58 C35.6327774,3.57224967 35.2212838,3.75100134 34.934,4.07 C34.6057536,4.45528827 34.4088883,4.93519112 34.372,5.44 L37.612,5.44 L37.612,5.356 C37.6111953,4.88055432 37.4505947,4.41917986 37.156,4.046 C36.8764345,3.73306395 36.4712409,3.56203113 36.052,3.58 L36.062,3.58 Z" id="Shape"></path>
                    <path d="M39.6,6 C39.6,5.004 39.836,4.204 40.308,3.6 C40.7446151,3.04591905 41.4028875,2.71198608 42.1078778,2.68694544 C42.8128682,2.66190479 43.4931738,2.94829265 43.968,3.47 L43.968,0.09 L45.078,0.09 L45.078,9.31 L44.058,9.31 L44.004,8.612 C43.5497516,9.16065291 42.8634304,9.46304931 42.152,9.428 C41.4249855,9.43958104 40.7383809,9.09441095 40.314,8.504 C39.8406667,7.888 39.6033333,7.088 39.602,6.104 L39.6,6 Z M40.71,6.126 C40.71,6.862 40.862,7.436 41.166,7.852 C41.453339,8.25982425 41.9274649,8.49462941 42.426,8.476 C43.0844986,8.50313458 43.6936487,8.12815127 43.966,7.528 L43.966,4.548 C43.6839204,3.96593396 43.0843595,3.6057265 42.438,3.63 C41.9344656,3.61008146 41.4553139,3.84739719 41.166,4.26 C40.862,4.68 40.71,5.302 40.71,6.126 L40.71,6.126 Z" id="Shape"></path>
                    <path d="M55.2000059,6.2 C55.2000059,7.192 54.9726667,7.992 54.518,8.6 C54.0938125,9.18696209 53.4058318,9.52495694 52.682,9.502 C51.862,9.502 51.2286667,9.212 50.782,8.632 L50.728,9.382 L49.708,9.382 L49.708,0.162 L50.818,0.162 L50.818,3.602 C51.2669907,3.04475589 51.9552071,2.73557875 52.67,2.77 C53.3982219,2.74156895 54.0932639,3.07560851 54.526,3.662 C54.9766667,4.258 55.2013333,5.07133333 55.2000059,6.102 L55.2000059,6.2 Z M54.092,6.074 C54.092,5.318 53.946,4.734 53.654,4.322 C53.368304,3.91293248 52.892355,3.67949081 52.394,3.704 C51.7056257,3.67578141 51.0741901,4.08445169 50.818,4.724 L50.818,7.524 C51.0871211,8.15803016 51.7175129,8.56214781 52.406,8.542 C52.898402,8.5617576 53.3667972,8.32869138 53.648,7.924 C53.9466667,7.52 54.096,6.90333333 54.096,6.074 L54.092,6.074 Z" id="Shape"></path>
                    <path d="M58.6,7.6 L60.112,2.74 L61.3,2.74 L58.7,10.22 C58.3,11.3 57.6586667,11.8393333 56.776,11.8380025 L56.566,11.82 L56.152,11.742 L56.152,10.844 L56.452,10.868 C56.7613574,10.8861842 57.068577,10.8064051 57.33,10.64 C57.5832898,10.4209993 57.763956,10.1301198 57.848,9.806 L58.094,9.146 L55.774,2.726 L56.986,2.726 L58.6,7.6 Z" id="Path"></path>
                </g>
            </g>
        </g>
    </g>
</svg>
