<?xml version="1.0" encoding="UTF-8"?>
<svg width="173px" height="50px" viewBox="0 0 173 50" version="1.1" xmlns="http://www.w3.org/2000/svg" xmlns:xlink="http://www.w3.org/1999/xlink">
    <title>sectigo-logo-colors</title>
    <g id="OLD" stroke="none" stroke-width="1" fill="none" fill-rule="evenodd">
        <g id="sectigo-logo-colors" fill-rule="nonzero">
            <path d="M47.9689993,35.6977072 L29.8606309,35.6977072 C29.0820864,35.6977072 28.7360666,35.2940174 28.7937365,34.5154729 L31.7060697,1.21106923 C31.7637397,0.432524724 32.1962644,0.0288349816 32.9748089,0.0288349816 L51.0831773,0.0288349816 C51.8328868,0.0288349816 52.1500716,0.432524724 52.0924017,1.21106923 L51.7752169,4.98845181 C51.7175469,5.76699632 51.3138572,6.17068606 50.5641476,6.17068606 L38.972485,6.17068606 C38.5399603,6.17068606 38.3092805,6.37253093 38.2516105,6.77622067 L37.6172409,13.9849661 C37.5884059,14.3886558 37.7902508,14.5905007 38.2227755,14.5905007 L47.7094845,14.5905007 C48.488029,14.5905007 48.8340487,14.9941904 48.7763788,15.7727349 L48.430359,19.5501175 C48.372689,20.328662 47.9401643,20.7323518 47.1616198,20.7323518 L37.6749109,20.7323518 C37.2423862,20.7323518 37.0117063,20.9341966 36.9540363,21.3378864 L36.2908318,29.0368264 C36.2619968,29.4405162 36.4638416,29.6423611 36.8963664,29.6423611 L48.488029,29.6423611 C49.2377385,29.6423611 49.5549233,30.0460508 49.4972533,30.8245953 L49.1800685,34.6019779 C49.0935636,35.3228524 48.6898738,35.6977072 47.9689993,35.6977072 M67.5191168,35.6977072 L61.4637707,35.6977072 C58.5514375,35.6977072 56.3599789,34.9191627 54.9182299,33.3909087 C53.4476458,31.8338197 52.8709462,29.5846911 53.130461,26.672358 L54.658715,9.0830192 C54.9182299,6.17068606 55.8986192,3.92155749 57.6287181,2.36446849 C59.358817,0.807379484 61.6656155,0.0576699632 64.5779487,0.0576699632 L70.6332948,0.0576699632 C73.516793,0.0576699632 75.7082516,0.836214466 77.1788356,2.42213845 C78.6494197,4.00806244 79.2549543,6.22835602 78.9954395,9.0830192 L78.7647596,11.6781675 C78.7070897,12.485547 78.24573,12.8892368 77.4383505,12.8892368 L72.7670835,12.8892368 C71.9885389,12.8892368 71.6425192,12.485547 71.7290241,11.6781675 L71.930869,9.40020399 C72.0462089,8.21796975 71.873199,7.38175528 71.4118393,6.86272562 C70.9504796,6.37253093 70.1431001,6.11301609 68.9608659,6.11301609 L65.1834833,6.11301609 C64.030084,6.11301609 63.1938696,6.37253093 62.6460049,6.86272562 C62.0981403,7.3529203 61.7809555,8.18913477 61.6944505,9.40020399 L60.2238665,26.2975032 C60.1085265,27.4797374 60.2815364,28.3159519 60.7428961,28.8349816 C61.2042558,29.3251763 61.9828003,29.5846911 63.1361996,29.5846911 L66.9135822,29.5846911 C68.0958164,29.5846911 68.9608659,29.3251763 69.5087305,28.8349816 C70.0565952,28.3447869 70.37378,27.5085724 70.4602849,26.2975032 L70.6332948,24.0195397 C70.6909648,23.2121602 71.1234895,22.8084704 71.902034,22.8084704 L76.573301,22.8084704 C77.3806805,22.8084704 77.7555353,23.2121602 77.6978653,24.0195397 L77.4671854,26.614688 C77.2076706,29.4981862 76.2272812,31.7184797 74.4683474,33.2755687 C72.7094135,34.9191627 70.402615,35.6977072 67.5191168,35.6977072 M93.2687554,35.6977072 L88.5974883,35.6977072 C87.7901089,35.6977072 87.4152541,35.2940174 87.4729241,34.5154729 L89.8950625,6.74738569 C89.9238975,6.34369595 89.7508876,6.14185108 89.3471979,6.14185108 L83.0323369,6.14185108 C82.2537924,6.14185108 81.9077726,5.73816133 81.9654426,4.95961683 L82.2826274,1.18223424 C82.3402973,0.403689742 82.7728221,0 83.5513666,0 L104.514398,0 C105.292943,0 105.638962,0.403689742 105.581292,1.18223424 L105.264108,4.95961683 C105.206438,5.73816133 104.773913,6.14185108 103.995368,6.14185108 L97.6805075,6.14185108 C97.2479828,6.14185108 97.017303,6.34369595 96.959633,6.74738569 L94.5374945,34.5154729 C94.4798246,35.3228524 94.0472999,35.6977072 93.2687554,35.6977072 M116.250236,1.21106923 L113.337903,34.5443079 C113.280233,35.3228524 112.847708,35.7265422 112.069163,35.7265422 L107.340226,35.7265422 C106.561682,35.7265422 106.215662,35.3228524 106.273332,34.5443079 L109.185665,1.23990421 C109.243335,0.461359705 109.67586,0.0576699632 110.454404,0.0576699632 L115.154506,0.0576699632 C115.961886,0.0576699632 116.307906,0.432524724 116.250236,1.21106923 M156.936395,29.5846911 L160.857952,29.5846911 C162.040186,29.5846911 162.905236,29.3251763 163.453101,28.8349816 C164.000965,28.3447869 164.31815,27.5085724 164.404655,26.2975032 L165.875239,9.40020399 C165.990579,8.21796975 165.817569,7.38175528 165.356209,6.86272562 C164.89485,6.37253093 164.08747,6.11301609 162.905236,6.11301609 L158.983678,6.11301609 C157.801444,6.11301609 156.96523,6.37253093 156.417365,6.86272562 C155.898335,7.3529203 155.581151,8.18913477 155.465811,9.40020399 L153.995227,26.2975032 C153.879887,27.4797374 154.052897,28.3159519 154.514256,28.8349816 C154.946781,29.3540112 155.75416,29.5846911 156.936395,29.5846911 M161.492322,35.6977072 L155.263966,35.6977072 C152.351633,35.6977072 150.160174,34.9191627 148.718425,33.3909087 C147.247841,31.8338197 146.671141,29.5846911 146.930656,26.672358 L148.45891,9.0830192 C148.718425,6.14185108 149.698814,3.92155749 151.428913,2.36446849 C153.159012,0.807379484 155.465811,0.0576699632 158.378144,0.0576699632 L164.6065,0.0576699632 C167.518833,0.0576699632 169.710292,0.836214466 171.152041,2.36446849 C172.622625,3.92155749 173.199324,6.17068606 172.939809,9.0830192 L171.411555,26.672358 C171.152041,29.5846911 170.171651,31.8338197 168.441552,33.3909087 C166.711453,34.9479977 164.43349,35.6977072 161.492322,35.6977072 M137.934142,11.9665174 L142.634244,11.9665174 C143.412788,11.9665174 143.845313,11.5628276 143.902983,10.7554481 L144.047158,9.0830192 C144.306673,6.19952104 143.701138,3.97922746 142.259389,2.42213845 C140.788805,0.836214466 138.626181,0.0576699632 135.742683,0.0576699632 L129.860347,0.0576699632 C126.948014,0.0576699632 124.61238,0.836214466 122.911116,2.36446849 C121.181018,3.92155749 120.200628,6.17068606 119.941113,9.0830192 L118.384024,26.643523 C118.124509,29.5558561 118.730044,31.8049847 120.171793,33.3620737 C121.642377,34.9191627 123.805001,35.6688722 126.717334,35.6688722 L132.59967,35.6688722 C135.483168,35.6688722 137.789967,34.8903277 139.520066,33.3044037 C141.250165,31.7184797 142.230554,29.4981862 142.490069,26.643523 L143.297448,17.3874939 C143.355118,16.5512794 142.980264,16.1187547 142.115214,16.1187547 L131.129086,16.1187547 C130.264037,16.1187547 129.658502,17.0414741 130.004522,17.7911836 L131.417436,20.6746818 C131.878796,21.6262362 132.859185,22.2029358 133.954914,22.2029358 L135.165984,22.2029358 C135.569673,22.2029358 135.771518,22.4047807 135.713848,22.8084704 L135.396663,26.2975032 C135.281324,27.4797374 134.964139,28.3159519 134.445109,28.8349816 C133.926079,29.3251763 133.06103,29.5846911 131.878796,29.5846911 L128.274423,29.5846911 C127.121024,29.5846911 126.313644,29.3251763 125.88112,28.8349816 C125.41976,28.3447869 125.24675,27.5085724 125.36209,26.2975032 L126.832674,9.40020399 C126.948014,8.21796975 127.265199,7.38175528 127.784228,6.86272562 C128.332093,6.37253093 129.168307,6.11301609 130.321707,6.11301609 L133.926079,6.11301609 C135.108314,6.11301609 135.915693,6.37253093 136.348218,6.86272562 C136.780743,7.3529203 136.953752,8.18913477 136.838413,9.40020399 L136.723073,10.7266131 C136.809578,11.5628276 137.155597,11.9665174 137.934142,11.9665174 M89.145353,47.2316998 L87.4729241,47.2316998 L87.2999142,49.4231584 L86.2041849,49.4231584 L86.6655446,44.0886868 L89.6067127,44.0886868 L89.5202077,44.9825713 L87.6459339,44.9825713 L87.530594,46.3666504 L89.203023,46.3666504 L89.145353,47.2316998 Z M94.3356497,47.2028648 C94.2779797,47.9237394 94.0472999,48.471604 93.6724451,48.8752938 C93.2975903,49.2789835 92.8073956,49.4808284 92.201861,49.4808284 C91.5963264,49.4808284 91.1638017,49.2789835 90.8466169,48.8752938 C90.5294321,48.471604 90.4140922,47.9237394 90.4717621,47.2316998 L90.5582671,46.3089804 C90.615937,45.5881059 90.8466169,45.0114062 91.2214717,44.6077165 C91.5963264,44.2040268 92.0865211,43.9733469 92.6920557,43.9733469 C93.2975903,43.9733469 93.7301151,44.1751918 94.0472999,44.5788815 C94.3644847,44.9825713 94.4798246,45.5304359 94.4221546,46.2801454 L94.3356497,47.2028648 L94.3356497,47.2028648 Z M93.3264253,46.3089804 C93.3840953,45.8476207 93.3264253,45.4727659 93.2110854,45.2420861 C93.0957455,45.0114062 92.8939006,44.8960663 92.6055508,44.8960663 C92.317201,44.8960663 92.0865211,45.0114062 91.9423462,45.2420861 C91.7981713,45.4727659 91.6828314,45.8187857 91.6251614,46.2801454 L91.5386565,47.2316998 C91.5098215,47.6930595 91.5386565,48.0390793 91.6539964,48.2697592 C91.7693363,48.500439 91.9711812,48.6157789 92.259531,48.6157789 C92.5478808,48.6157789 92.7785607,48.500439 92.9227356,48.2985941 C93.0669105,48.0967493 93.1822504,47.7507295 93.2399204,47.2893698 L93.3264253,46.3089804 L93.3264253,46.3089804 Z M97.3056528,47.4335447 L96.7577881,47.4335447 L96.5847782,49.3943234 L95.4890489,49.3943234 L95.9504086,44.0598518 L97.6805075,44.0598518 C98.2283722,44.0598518 98.6320619,44.2040268 98.8915768,44.4923766 C99.1510916,44.7807264 99.2952665,45.1555811 99.2375965,45.6746108 C99.1799266,46.3954854 98.8915768,46.88568 98.3437121,47.1740299 L99.0934216,49.3654885 L99.0934216,49.4231584 L97.9400224,49.4231584 L97.3056528,47.4335447 L97.3056528,47.4335447 Z M96.8442931,46.5396603 L97.4498277,46.5396603 C97.6805075,46.5396603 97.8535174,46.4819903 97.9688573,46.3089804 C98.0841973,46.1648055 98.1418672,45.9629606 98.1995372,45.7322808 C98.2572072,45.1844161 98.0553623,44.9249013 97.6516726,44.9249013 L97.017303,44.9249013 L96.8442931,46.5396603 L96.8442931,46.5396603 Z M102.14993,44.0598518 L102.813134,47.9237394 L104.139543,44.0598518 L105.552458,44.0598518 L105.091098,49.3943234 L104.024203,49.3943234 L104.168378,47.9525744 L104.456728,45.7322808 L103.072649,49.3943234 L102.351775,49.3943234 L101.602065,45.7322808 L101.486725,47.9525744 L101.34255,49.3943234 L100.246821,49.3943234 L100.708181,44.0598518 L102.14993,44.0598518 Z M109.531685,47.0875249 L107.859256,47.0875249 L107.743916,48.500439 L109.73353,48.500439 L109.647025,49.3943234 L106.590517,49.3943234 L107.051877,44.0598518 L110.108385,44.0598518 L110.02188,44.9537363 L108.032266,44.9537363 L107.916926,46.1936405 L109.589355,46.1936405 L109.531685,47.0875249 L109.531685,47.0875249 Z M112.645863,47.4335447 L112.097998,47.4335447 L111.924988,49.3943234 L110.829259,49.3943234 L111.290619,44.0598518 L113.020718,44.0598518 C113.568582,44.0598518 113.972272,44.2040268 114.231787,44.4923766 C114.491302,44.7807264 114.635477,45.1555811 114.577807,45.6746108 C114.520137,46.3954854 114.231787,46.88568 113.683922,47.1740299 L114.433632,49.3654885 L114.433632,49.4231584 L113.280233,49.4231584 L112.645863,47.4335447 L112.645863,47.4335447 Z M112.184503,46.5396603 L112.790038,46.5396603 C113.020718,46.5396603 113.193728,46.4819903 113.309068,46.3089804 C113.424407,46.1648055 113.482077,45.9629606 113.539747,45.7322808 C113.597417,45.1844161 113.395572,44.9249013 112.991883,44.9249013 L112.357513,44.9249013 L112.184503,46.5396603 Z M116.769265,48.500439 L118.672374,48.500439 L118.585869,49.3943234 L115.615866,49.3943234 L116.077226,44.0598518 L117.172955,44.0598518 L116.769265,48.500439 Z M121.671212,46.4531553 L122.680437,44.0598518 L123.862671,44.0598518 L122.132572,47.4623797 L121.959562,49.3943234 L120.863833,49.3943234 L121.036843,47.4623797 L119.912278,44.0598518 L121.094513,44.0598518 L121.671212,46.4531553 L121.671212,46.4531553 Z M130.581222,47.6065546 C130.494717,48.2120892 130.292872,48.6734489 129.946852,48.9906337 C129.600832,49.3078185 129.139472,49.4519934 128.562773,49.4519934 C127.957238,49.4519934 127.524713,49.2501485 127.236364,48.8464588 C126.948014,48.442769 126.832674,47.8949044 126.890344,47.1451949 L126.976849,46.2513104 C127.034519,45.5304359 127.265199,44.9537363 127.611218,44.5500465 C127.986073,44.1463568 128.447433,43.9445119 129.052967,43.9445119 C129.629667,43.9445119 130.062192,44.1175218 130.350542,44.4347066 C130.610056,44.7518914 130.754231,45.2420861 130.754231,45.8476207 L129.658502,45.8476207 C129.687337,45.4727659 129.629667,45.2132511 129.543162,45.0690762 C129.427822,44.9249013 129.254812,44.8383964 128.966463,44.8383964 C128.678113,44.8383964 128.447433,44.9537363 128.332093,45.1555811 C128.187918,45.357426 128.101413,45.7034458 128.072578,46.1648055 L127.986073,47.1740299 C127.928403,47.6930595 127.957238,48.0679143 128.072578,48.2697592 C128.187918,48.471604 128.389763,48.586944 128.678113,48.586944 C128.966463,48.586944 129.168307,48.529274 129.283647,48.3850991 C129.398987,48.2409242 129.485492,47.9814093 129.543162,47.6353896 L130.610056,47.6353896 L130.581222,47.6065546 L130.581222,47.6065546 Z M135.627343,47.2028648 C135.569673,47.9237394 135.338993,48.471604 134.964139,48.8752938 C134.589284,49.2789835 134.099089,49.4808284 133.493555,49.4808284 C132.88802,49.4808284 132.455495,49.2789835 132.138311,48.8752938 C131.821126,48.471604 131.705786,47.9237394 131.763456,47.2316998 L131.849961,46.3089804 C131.907631,45.5881059 132.138311,45.0114062 132.513165,44.6077165 C132.88802,44.2040268 133.378215,43.9733469 133.983749,43.9733469 C134.589284,43.9733469 135.021809,44.1751918 135.338993,44.5788815 C135.656178,44.9825713 135.771518,45.5304359 135.713848,46.2801454 L135.627343,47.2028648 L135.627343,47.2028648 Z M134.646954,46.3089804 C134.704624,45.8476207 134.646954,45.4727659 134.531614,45.2420861 C134.416274,45.0114062 134.214429,44.8960663 133.926079,44.8960663 C133.63773,44.8960663 133.40705,45.0114062 133.262875,45.2420861 C133.1187,45.4727659 133.00336,45.8187857 132.94569,46.2801454 L132.859185,47.2316998 C132.83035,47.6930595 132.859185,48.0390793 132.974525,48.2697592 C133.089865,48.500439 133.29171,48.6157789 133.58006,48.6157789 C133.868409,48.6157789 134.099089,48.500439 134.243264,48.2985941 C134.387439,48.0679143 134.502779,47.7507295 134.560449,47.2893698 L134.646954,46.3089804 L134.646954,46.3089804 Z M138.712686,44.0598518 L139.375891,47.9237394 L140.7023,44.0598518 L142.115214,44.0598518 L141.653854,49.3943234 L140.558125,49.3943234 L140.7023,47.9525744 L140.99065,45.7322808 L139.606571,49.3943234 L138.885696,49.3943234 L138.135987,45.7322808 L138.020647,47.9525744 L137.876472,49.3943234 L136.780743,49.3943234 L137.242102,44.0598518 L138.712686,44.0598518 Z M147.074831,47.2028648 C147.017161,47.9237394 146.786481,48.471604 146.411626,48.8752938 C146.036772,49.2789835 145.546577,49.4808284 144.941042,49.4808284 C144.335508,49.4808284 143.902983,49.2789835 143.585798,48.8752938 C143.268613,48.471604 143.153273,47.9237394 143.210943,47.2316998 L143.297448,46.3089804 C143.355118,45.5881059 143.585798,45.0114062 143.960653,44.6077165 C144.335508,44.2040268 144.825702,43.9733469 145.431237,43.9733469 C146.036772,43.9733469 146.469296,44.1751918 146.786481,44.5788815 C147.103666,44.9825713 147.219006,45.5304359 147.161336,46.2801454 L147.074831,47.2028648 L147.074831,47.2028648 Z M146.065607,46.3089804 C146.123277,45.8476207 146.065607,45.4727659 145.950267,45.2420861 C145.834927,45.0114062 145.633082,44.8960663 145.344732,44.8960663 C145.056382,44.8960663 144.825702,45.0114062 144.681528,45.2420861 C144.537353,45.4727659 144.422013,45.8187857 144.364343,46.2801454 L144.277838,47.2316998 C144.249003,47.6930595 144.277838,48.0390793 144.393178,48.2697592 C144.508518,48.500439 144.710362,48.6157789 144.998712,48.6157789 C145.287062,48.6157789 145.517742,48.500439 145.661917,48.2985941 C145.806092,48.0679143 145.921432,47.7507295 145.979102,47.2893698 L146.065607,46.3089804 L146.065607,46.3089804 Z M148.257065,49.3943234 L148.718425,44.0598518 L150.131339,44.0598518 C150.765709,44.0598518 151.227068,44.2616967 151.573088,44.6653865 C151.919108,45.0690762 152.034448,45.5881059 152.005613,46.2801454 L151.947943,47.1451949 C151.890273,47.8372344 151.659593,48.3850991 151.255903,48.8176238 C150.852214,49.2213136 150.333184,49.4231584 149.669979,49.4231584 L148.257065,49.4231584 L148.257065,49.3943234 Z M149.698814,44.9537363 L149.381629,48.500439 L149.698814,48.500439 C150.044834,48.500439 150.333184,48.3850991 150.477359,48.2120892 C150.650369,48.0390793 150.736874,47.6930595 150.794544,47.2316998 L150.881049,46.3089804 C150.938719,45.7899507 150.881049,45.4727659 150.765709,45.2709211 C150.650369,45.0690762 150.419689,44.9537363 150.102504,44.9537363 L149.698814,44.9537363 L149.698814,44.9537363 Z M157.051735,47.2028648 C156.994065,47.9237394 156.763385,48.471604 156.38853,48.8752938 C156.013675,49.2789835 155.523481,49.4808284 154.917946,49.4808284 C154.312411,49.4808284 153.879887,49.2789835 153.562702,48.8752938 C153.245517,48.471604 153.130177,47.9237394 153.187847,47.2316998 L153.274352,46.3089804 C153.332022,45.5881059 153.562702,45.0114062 153.937557,44.6077165 C154.312411,44.2040268 154.802606,43.9733469 155.408141,43.9733469 C156.013675,43.9733469 156.4462,44.1751918 156.763385,44.5788815 C157.08057,44.9825713 157.19591,45.5304359 157.13824,46.2801454 L157.051735,47.2028648 L157.051735,47.2028648 Z M156.04251,46.3089804 C156.10018,45.8476207 156.04251,45.4727659 155.92717,45.2420861 C155.81183,45.0114062 155.609986,44.8960663 155.321636,44.8960663 C155.033286,44.8960663 154.802606,45.0114062 154.658431,45.2420861 C154.514256,45.4727659 154.398916,45.8187857 154.341246,46.2801454 L154.254741,47.2316998 C154.225906,47.6930595 154.254741,48.0390793 154.370081,48.2697592 C154.485421,48.500439 154.687266,48.6157789 154.975616,48.6157789 C155.263966,48.6157789 155.494646,48.500439 155.638821,48.2985941 C155.782995,48.0679143 155.898335,47.7507295 155.956005,47.2893698 L156.04251,46.3089804 L156.04251,46.3089804 Z M164.31815,47.6065546 C164.231645,48.2120892 164.0298,48.6734489 163.68378,48.9906337 C163.337761,49.3078185 162.876401,49.4519934 162.299701,49.4519934 C161.694167,49.4519934 161.261642,49.2501485 160.973292,48.8464588 C160.684942,48.442769 160.569602,47.8949044 160.627272,47.1451949 L160.713777,46.2513104 C160.771447,45.5304359 161.002127,44.9537363 161.348147,44.5500465 C161.723002,44.1463568 162.184361,43.9445119 162.789896,43.9445119 C163.366596,43.9445119 163.79912,44.1175218 164.08747,44.4347066 C164.346985,44.7518914 164.49116,45.2420861 164.49116,45.8476207 L163.395431,45.8476207 C163.424266,45.4727659 163.366596,45.2132511 163.280091,45.0690762 C163.164751,44.9249013 162.991741,44.8383964 162.703391,44.8383964 C162.415041,44.8383964 162.184361,44.9537363 162.069021,45.1555811 C161.924846,45.357426 161.838342,45.7034458 161.809507,46.1648055 L161.723002,47.1740299 C161.665332,47.6930595 161.694167,48.0679143 161.809507,48.2697592 C161.924846,48.471604 162.126691,48.586944 162.415041,48.586944 C162.703391,48.586944 162.905236,48.529274 163.020576,48.3850991 C163.135916,48.2409242 163.222421,47.9814093 163.280091,47.6353896 L164.31815,47.6065546 L164.31815,47.6065546 L164.31815,47.6065546 Z M168.095533,48.2985941 L166.624948,48.2985941 L166.221259,49.3943234 L165.096694,49.3943234 L167.230483,44.0598518 L168.210872,44.0598518 L169.421942,49.3943234 L168.268542,49.3943234 L168.095533,48.2985941 Z M166.942133,47.4047097 L167.951358,47.4047097 L167.605338,45.5016009 L166.942133,47.4047097 Z" id="Shape" fill="#011038"></path>
            <path d="M22.1040208,6.17068606 C23.1997501,6.17068606 24.2666444,5.56515144 24.929849,4.64243203 L26.8617928,1.75893388 C27.3808225,1.00922436 26.9194627,0.0865049447 26.0544133,0.0865049447 L12.1559522,0.0865049447 C9.24361904,0.0865049447 6.93682051,0.865049447 5.20672162,2.39330347 C3.50545771,3.92155749 2.52506833,6.14185108 2.23671852,9.02534923 L1.60234892,16.6089494 C1.37166907,19.4924475 1.9483687,21.7127411 3.39011778,23.2409952 C4.86070184,24.7980842 7.02332546,25.5477937 9.9356586,25.5477937 L13.1075066,25.5477937 C13.7130412,25.5477937 14.059061,25.057599 14.1455659,24.3655594 L14.4627507,20.6458468 C14.5204207,19.9826422 14.030226,19.4347776 13.3381864,19.4347776 L11.5792525,19.4347776 C10.4258533,19.4347776 9.6184738,19.1752627 9.18594908,18.6850681 C8.75342435,18.1948734 8.55157948,17.3586589 8.66691941,16.1475897 L9.27245402,9.37136901 C9.38779395,8.18913477 9.70497875,7.3529203 10.2240084,6.83389063 C10.7718731,6.34369595 11.6080875,6.08418111 12.7614868,6.08418111 C12.7326518,6.14185108 22.1040208,6.17068606 22.1040208,6.17068606 Z" id="Path" fill="#00B373"></path>
            <path d="M14.1744009,10.2075835 C13.5400313,10.2075835 13.2228465,10.6977782 13.1363416,11.3898177 L12.8191568,15.1095303 C12.7614868,15.7727349 13.2516815,16.3205996 13.943721,16.3205996 L15.7026549,16.3205996 C16.8560542,16.3205996 17.6634337,16.5801144 18.0959584,17.0703091 C18.5284831,17.5605038 18.730328,18.3967182 18.6149881,19.6077875 L18.0094534,26.3840081 C17.8941135,27.5662424 17.5769287,28.4024569 17.057899,28.9214865 C16.5100344,29.4116812 15.6738199,29.671196 14.5204207,29.671196 L4.97604177,29.671196 C3.88031247,29.671196 2.81341815,30.2767307 2.15021357,31.1994501 L0.218269807,34.0829482 C-0.300759861,34.8326577 0.160599844,35.7553772 1.02564929,35.7553772 L15.0971203,35.7553772 C18.0094534,35.7553772 20.316252,34.9768327 22.0463509,33.4485786 C23.7476148,31.9203246 24.7280041,29.700031 25.016354,26.8165329 L25.6795585,19.2617677 C25.9102384,16.3782695 25.3335388,14.157976 23.8917897,12.6297219 C22.4212056,11.0726329 20.258582,10.3229234 17.3462489,10.3229234 L14.1744009,10.3229234 C14.1744009,10.3229234 14.1744009,10.2075835 14.1744009,10.2075835 Z" id="Path" fill="#00B373"></path>
        </g>
    </g>
</svg>
