<?xml version="1.0" encoding="UTF-8"?>
<svg width="180px" height="43px" viewBox="0 0 180 43" version="1.1" xmlns="http://www.w3.org/2000/svg" xmlns:xlink="http://www.w3.org/1999/xlink">
    <title>Thawte_logo</title>
    <g id="HOSTING" stroke="none" stroke-width="1" fill="none" fill-rule="evenodd">
        <g id="Thawte_logo" fill-rule="nonzero">
            <path d="M81.8651363,16.2697274 C80.8243902,15.7170732 79.4195122,15.3245337 77.733142,15.3245337 C73.7819225,15.3245337 71.4060258,17.1813486 70.4505022,17.9328551 L71.8734577,9.53974175 L66.2694405,9.53974175 L62.3698709,32.5239598 L67.9738881,32.5239598 L70.0967001,19.9988522 C71.4964132,18.9245337 73.1956958,18.0129125 75.0550933,18.0129125 C76.0209469,18.0129125 76.8550933,18.3047346 77.4025825,18.7928264 C78.4252511,19.7044476 78.2367288,21.0705882 77.9707317,22.6407461 L76.2946915,32.5317073 L81.8987088,32.5317073 L83.7684362,21.5044476 C84.0158393,20.0401722 84.4063128,17.7340029 81.8754663,16.2878049 L81.8651363,16.2697274 Z M96.6886657,15.128264 C90.3098996,15.128264 88.1406026,17.994835 86.9268293,19.5959828 L88.2645624,20.148637 C89.2536585,19.2705882 91.0278336,17.6746055 94.6175036,17.6746055 C96.2134864,17.6746055 98.5428981,18.0981349 99.2401722,19.8568149 C99.5190818,20.5515065 99.5113343,21.2952654 99.4395409,22.0261119 L99.5601435,22.0261119 L98.6820947,27.1911047 L98.5860258,27.1911047 L98.2580488,29.1228121 C97.0726829,29.6754663 95.6239024,30.3288379 93.6353802,30.3288379 C90.8204591,30.3288379 90.0198852,28.8 90.2781349,27.358967 C90.6371019,25.2413199 92.9897561,24.2341463 95.4689527,24.2341463 C96.2307891,24.2341463 96.8841607,24.3173027 97.4832999,24.4451363 L97.8939168,22.0279197 C96.8660832,21.8122812 95.8253372,21.6637877 94.4333716,21.6637877 C89.4233286,21.6637877 84.9814347,23.8124247 84.3358106,27.6551793 C83.8296413,30.6508752 86.205538,33.0009469 90.5854519,33.0009469 C94.5883214,33.0009469 96.9642181,31.3739742 97.9972166,30.6250502 L97.6795696,32.5128551 L103.102812,32.5128551 L104.80726,22.4411191 C105.065509,20.9122812 105.398651,18.6964993 103.577991,17.0437016 C102.524333,16.0675179 100.324046,15.1223242 96.682726,15.1223242 L96.6886657,15.128264 Z M145.756098,31.0880918 C145.337733,31.0880918 143.653945,31.0880918 142.889527,29.6238164 C142.564132,29.0711621 142.42726,28.3868006 142.664333,26.98967 L143.950416,19.3971306 L150.070933,19.3971306 L150.670072,15.8591105 L144.549555,15.8591105 L145.316557,11.3397418 L139.712539,11.3397418 L138.945538,15.8591105 L133.057446,15.8591105 L127.944103,24.148924 L127.047977,25.7139168 C126.735495,24.8332855 126.717418,24.6705882 126.43076,23.8906743 L123.512539,15.8591105 L121.663472,15.8591105 L114.406657,25.6984218 C114.250674,24.8849354 114.199024,24.6886657 114.032195,23.9397418 L111.868063,15.856528 L106.031621,15.856528 L111.170789,32.6427547 L113.229039,32.6427547 L120.537504,22.9325681 L124.566198,32.6427547 L126.583128,32.6427547 L135.234491,19.3945481 L138.333486,19.3945481 L136.933773,27.6843615 C136.685079,29.148637 136.647116,30.6025825 138.002927,31.7905308 C139.428465,33.0611191 141.644247,33.1566714 142.65142,33.1566714 C145.414692,33.1566714 147.067489,32.4077475 148.436212,31.8215208 L147.940373,30.7807747 C147.240516,30.9437303 146.6233,31.1061693 145.740086,31.1061693 L145.756098,31.0880918 Z M157.299857,22.0751793 C157.224964,22.1864849 157.064333,22.5374462 156.87891,23.6272597 C156.805308,24.0533716 156.767604,24.3710187 156.748752,24.6163558 L171.675581,24.6163558 C171.941578,22.7931133 172.424505,19.7096126 169.836844,17.3595409 C167.571994,15.3400287 164.258651,15.112769 162.399254,15.112769 C154.78089,15.112769 150.080746,19.0898135 149.254347,23.9707317 C148.389211,29.0840746 151.767116,33.2160689 159.506858,33.2160689 C166.892798,33.2160689 169.217044,29.8071736 170.430818,27.9736011 L169.131822,27.4519369 C167.411879,28.9162123 165.593802,30.4476327 161.694232,30.4476327 C155.986915,30.4476327 155.237991,27.0645624 155.134692,25.3342898 C155.108867,25.2663702 155.012798,24.9185079 155.201578,23.764132 C155.395007,22.5839311 155.643185,22.1319943 155.692253,22.0493544 C156.598709,20.1357245 157.8099,17.8657102 161.812769,17.8657102 C166.022238,17.8657102 166.022238,20.6031564 166.022238,22.1010043 L157.319225,22.1010043 L157.299857,22.0751793 Z M57.8737446,11.3319943 L52.2955524,11.3319943 L49.5322812,27.6791966 C49.2838451,29.143472 49.2456241,30.5974175 50.6040172,31.7853659 C52.0295552,33.0559541 54.2453372,33.1515065 55.2525108,33.1515065 C58.0157819,33.1515065 59.6685796,32.4025825 61.0373027,31.8163558 L60.5414634,30.7756098 C59.8416069,30.9385653 59.2269727,31.1010043 58.343759,31.1010043 C57.9228121,31.1010043 56.2416069,31.1010043 55.4771879,29.6367288 C55.1517934,29.0840746 55.0123386,28.3997131 55.2504448,27.0025825 L56.536528,19.410043 L61.0558967,19.410043 L61.6524534,15.8978479 L57.1330846,15.8978479 L57.8737446,11.3319943 Z" id="Shape" fill="#004FA3"></path>
            <path d="M21.3830703,0 C9.58106169,0 0,9.58106169 0,21.3830703 C0,33.1850789 9.58106169,42.7661406 21.3830703,42.7661406 C33.1850789,42.7661406 42.7661406,33.1850789 42.7661406,21.3830703 C42.7661406,9.58106169 33.1850789,0 21.3830703,0 Z M21.3830703,38.4791966 C11.9311334,38.4791966 4.26111908,30.8091822 4.26111908,21.3572453 C4.26111908,11.9053085 11.9311334,4.23529412 21.3830703,4.23529412 C30.8350072,4.23529412 38.5050215,11.9053085 38.5050215,21.3572453 C38.5050215,30.8091822 30.8350072,38.4791966 21.3830703,38.4791966 Z M23.4516499,10.8464849 L17.8476327,10.8464849 L15.0843615,27.1936872 C14.8359254,28.6579627 14.7977044,30.1119082 16.1535151,31.2998565 C17.5764706,32.5704448 19.794835,32.6659971 20.8020086,32.6659971 C23.5652798,32.6659971 25.2180775,31.9170732 26.5868006,31.3308465 L26.0909613,30.2875179 C25.3911047,30.4504735 24.7738881,30.615495 23.8906743,30.615495 C23.4723099,30.615495 21.7885222,30.615495 21.0241033,29.148637 C20.6987088,28.5959828 20.5592539,27.9116212 20.7983931,26.5144907 L22.0844763,18.9219512 L26.6038451,18.9219512 L27.2004017,15.4097561 L22.681033,15.4097561 L23.4516499,10.8464849 Z" id="Shape" fill="#ED174C"></path>
            <path d="M174.576758,12.8866571 L173.174462,12.8866571 L173.174462,16.5021521 L172.012339,16.5021521 L172.012339,12.8866571 L170.610043,12.8866571 L170.610043,12.0137733 L174.587088,12.0137733 L174.587088,12.8866571 L174.576758,12.8866571 Z M180,16.5021521 L178.837877,16.5021521 L178.837877,13.4806313 L178.008895,15.4355811 L177.210904,15.4355811 L176.381923,13.4806313 L176.381923,16.5021521 L175.286944,16.5021521 L175.286944,12.0086083 L176.63759,12.0086083 L177.644763,14.2657102 L178.646772,12.0086083 L180,12.0086083 L180,16.5021521 Z" id="Shape" fill="#004FA3"></path>
        </g>
    </g>
</svg>